<mxfile host="app.diagrams.net" modified="2024-06-08T20:44:58.021Z" agent="Mozilla/5.0 (Macintosh; Intel Mac OS X 10_15_7) AppleWebKit/605.1.15 (KHTML, like Gecko) Version/17.5 Safari/605.1.15" etag="giz4OBaK3O3tW1iphI3Q" version="24.5.2" type="github">
  <diagram name="Page-1" id="_aQesUKbzHa6x40FF3ub">
    <mxGraphModel dx="2390" dy="1378" grid="1" gridSize="10" guides="1" tooltips="1" connect="1" arrows="1" fold="1" page="1" pageScale="1" pageWidth="827" pageHeight="1169" math="0" shadow="0">
      <root>
        <mxCell id="0" />
        <mxCell id="1" parent="0" />
        <mxCell id="apYx_cAYS3KFg23TpdSB-15" style="edgeStyle=orthogonalEdgeStyle;rounded=0;orthogonalLoop=1;jettySize=auto;html=1;dashed=1;" edge="1" parent="1" source="apYx_cAYS3KFg23TpdSB-1" target="apYx_cAYS3KFg23TpdSB-13">
          <mxGeometry relative="1" as="geometry">
            <mxPoint x="140" y="40" as="sourcePoint" />
            <Array as="points">
              <mxPoint x="240" y="40" />
            </Array>
          </mxGeometry>
        </mxCell>
        <mxCell id="apYx_cAYS3KFg23TpdSB-20" value="" style="edgeStyle=orthogonalEdgeStyle;rounded=0;orthogonalLoop=1;jettySize=auto;html=1;" edge="1" parent="1" source="apYx_cAYS3KFg23TpdSB-1" target="apYx_cAYS3KFg23TpdSB-19">
          <mxGeometry relative="1" as="geometry" />
        </mxCell>
        <mxCell id="apYx_cAYS3KFg23TpdSB-1" value="User" style="shape=umlActor;verticalLabelPosition=bottom;verticalAlign=top;html=1;outlineConnect=0;" vertex="1" parent="1">
          <mxGeometry x="70" y="30" width="30" height="60" as="geometry" />
        </mxCell>
        <mxCell id="apYx_cAYS3KFg23TpdSB-52" value="" style="edgeStyle=orthogonalEdgeStyle;rounded=0;orthogonalLoop=1;jettySize=auto;html=1;" edge="1" parent="1" source="apYx_cAYS3KFg23TpdSB-2" target="apYx_cAYS3KFg23TpdSB-44">
          <mxGeometry relative="1" as="geometry" />
        </mxCell>
        <mxCell id="apYx_cAYS3KFg23TpdSB-2" value="Reseller" style="shape=umlActor;verticalLabelPosition=bottom;verticalAlign=top;html=1;outlineConnect=0;" vertex="1" parent="1">
          <mxGeometry x="600" y="56" width="30" height="60" as="geometry" />
        </mxCell>
        <mxCell id="apYx_cAYS3KFg23TpdSB-53" value="" style="edgeStyle=orthogonalEdgeStyle;rounded=0;orthogonalLoop=1;jettySize=auto;html=1;" edge="1" parent="1" source="apYx_cAYS3KFg23TpdSB-3" target="apYx_cAYS3KFg23TpdSB-45">
          <mxGeometry relative="1" as="geometry" />
        </mxCell>
        <mxCell id="apYx_cAYS3KFg23TpdSB-3" value="Admin" style="shape=umlActor;verticalLabelPosition=bottom;verticalAlign=top;html=1;outlineConnect=0;" vertex="1" parent="1">
          <mxGeometry x="720" y="56" width="30" height="60" as="geometry" />
        </mxCell>
        <mxCell id="apYx_cAYS3KFg23TpdSB-7" style="edgeStyle=orthogonalEdgeStyle;rounded=1;orthogonalLoop=1;jettySize=auto;html=1;curved=0;dashed=1;" edge="1" parent="1" source="apYx_cAYS3KFg23TpdSB-4" target="apYx_cAYS3KFg23TpdSB-6">
          <mxGeometry relative="1" as="geometry">
            <Array as="points">
              <mxPoint x="181" y="280" />
            </Array>
          </mxGeometry>
        </mxCell>
        <mxCell id="apYx_cAYS3KFg23TpdSB-23" value="" style="edgeStyle=orthogonalEdgeStyle;rounded=0;orthogonalLoop=1;jettySize=auto;html=1;" edge="1" parent="1" source="apYx_cAYS3KFg23TpdSB-4" target="apYx_cAYS3KFg23TpdSB-22">
          <mxGeometry relative="1" as="geometry" />
        </mxCell>
        <mxCell id="apYx_cAYS3KFg23TpdSB-4" value="SignIn" style="rounded=0;whiteSpace=wrap;html=1;" vertex="1" parent="1">
          <mxGeometry x="80" y="271" width="90" height="40" as="geometry" />
        </mxCell>
        <mxCell id="apYx_cAYS3KFg23TpdSB-9" style="edgeStyle=orthogonalEdgeStyle;rounded=0;orthogonalLoop=1;jettySize=auto;html=1;entryX=0.5;entryY=1;entryDx=0;entryDy=0;" edge="1" parent="1" source="apYx_cAYS3KFg23TpdSB-6" target="apYx_cAYS3KFg23TpdSB-8">
          <mxGeometry relative="1" as="geometry">
            <mxPoint x="221" y="310" as="sourcePoint" />
            <Array as="points">
              <mxPoint x="240" y="310" />
            </Array>
          </mxGeometry>
        </mxCell>
        <mxCell id="apYx_cAYS3KFg23TpdSB-6" value="Register" style="rounded=1;whiteSpace=wrap;html=1;fillColor=#fff2cc;strokeColor=#d6b656;" vertex="1" parent="1">
          <mxGeometry x="146" y="298" width="70" height="30" as="geometry" />
        </mxCell>
        <mxCell id="apYx_cAYS3KFg23TpdSB-8" value="Validation" style="rounded=0;whiteSpace=wrap;html=1;fillColor=#dae8fc;strokeColor=#6c8ebf;" vertex="1" parent="1">
          <mxGeometry x="205" y="250" width="70" height="30" as="geometry" />
        </mxCell>
        <mxCell id="apYx_cAYS3KFg23TpdSB-12" value="" style="endArrow=classic;html=1;rounded=0;exitX=0.5;exitY=0;exitDx=0;exitDy=0;" edge="1" parent="1" source="apYx_cAYS3KFg23TpdSB-8">
          <mxGeometry relative="1" as="geometry">
            <mxPoint x="240" y="240" as="sourcePoint" />
            <mxPoint x="90" y="66" as="targetPoint" />
            <Array as="points">
              <mxPoint x="240" y="66" />
            </Array>
          </mxGeometry>
        </mxCell>
        <mxCell id="apYx_cAYS3KFg23TpdSB-13" value="" style="shape=message;html=1;outlineConnect=0;fillColor=#dae8fc;strokeColor=#6c8ebf;" vertex="1" parent="apYx_cAYS3KFg23TpdSB-12">
          <mxGeometry width="20" height="14" relative="1" as="geometry">
            <mxPoint x="-10" y="-23" as="offset" />
          </mxGeometry>
        </mxCell>
        <mxCell id="apYx_cAYS3KFg23TpdSB-14" value="&lt;span style=&quot;font-size: 12px; white-space: normal; background-color: rgb(251, 251, 251);&quot;&gt;Verification Email&lt;/span&gt;" style="edgeLabel;html=1;align=center;verticalAlign=middle;resizable=0;points=[];" vertex="1" connectable="0" parent="apYx_cAYS3KFg23TpdSB-12">
          <mxGeometry x="-0.2077" relative="1" as="geometry">
            <mxPoint y="-17" as="offset" />
          </mxGeometry>
        </mxCell>
        <mxCell id="apYx_cAYS3KFg23TpdSB-18" style="edgeStyle=orthogonalEdgeStyle;rounded=0;orthogonalLoop=1;jettySize=auto;html=1;entryX=0.75;entryY=0;entryDx=0;entryDy=0;dashed=1;exitX=1;exitY=0.5;exitDx=0;exitDy=0;" edge="1" parent="1" source="apYx_cAYS3KFg23TpdSB-13" target="apYx_cAYS3KFg23TpdSB-4">
          <mxGeometry relative="1" as="geometry">
            <mxPoint x="220" y="250" as="sourcePoint" />
            <Array as="points">
              <mxPoint x="280" y="67" />
              <mxPoint x="280" y="229" />
              <mxPoint x="148" y="229" />
            </Array>
          </mxGeometry>
        </mxCell>
        <mxCell id="apYx_cAYS3KFg23TpdSB-21" value="" style="edgeStyle=orthogonalEdgeStyle;rounded=0;orthogonalLoop=1;jettySize=auto;html=1;" edge="1" parent="1" source="apYx_cAYS3KFg23TpdSB-19" target="apYx_cAYS3KFg23TpdSB-4">
          <mxGeometry relative="1" as="geometry">
            <Array as="points">
              <mxPoint x="85" y="230" />
              <mxPoint x="125" y="230" />
            </Array>
          </mxGeometry>
        </mxCell>
        <mxCell id="apYx_cAYS3KFg23TpdSB-37" style="edgeStyle=orthogonalEdgeStyle;rounded=0;orthogonalLoop=1;jettySize=auto;html=1;entryX=0;entryY=0.5;entryDx=0;entryDy=0;curved=0;fillColor=#d5e8d4;strokeColor=#82b366;startArrow=classic;startFill=1;strokeWidth=3;" edge="1" parent="1" source="apYx_cAYS3KFg23TpdSB-19" target="apYx_cAYS3KFg23TpdSB-36">
          <mxGeometry relative="1" as="geometry">
            <Array as="points">
              <mxPoint x="15" y="175" />
              <mxPoint x="15" y="590" />
            </Array>
          </mxGeometry>
        </mxCell>
        <mxCell id="apYx_cAYS3KFg23TpdSB-19" value="Home" style="rounded=0;whiteSpace=wrap;html=1;" vertex="1" parent="1">
          <mxGeometry x="40" y="150" width="90" height="50" as="geometry" />
        </mxCell>
        <mxCell id="apYx_cAYS3KFg23TpdSB-26" value="" style="edgeStyle=orthogonalEdgeStyle;rounded=0;orthogonalLoop=1;jettySize=auto;html=1;" edge="1" parent="1" source="apYx_cAYS3KFg23TpdSB-22" target="apYx_cAYS3KFg23TpdSB-25">
          <mxGeometry relative="1" as="geometry" />
        </mxCell>
        <mxCell id="apYx_cAYS3KFg23TpdSB-22" value="Validation" style="rounded=0;whiteSpace=wrap;html=1;fillColor=#dae8fc;strokeColor=#6c8ebf;" vertex="1" parent="1">
          <mxGeometry x="90" y="360" width="70" height="30" as="geometry" />
        </mxCell>
        <mxCell id="apYx_cAYS3KFg23TpdSB-27" value="" style="edgeStyle=orthogonalEdgeStyle;rounded=0;orthogonalLoop=1;jettySize=auto;html=1;entryX=0.5;entryY=0;entryDx=0;entryDy=0;" edge="1" parent="1" source="apYx_cAYS3KFg23TpdSB-25" target="apYx_cAYS3KFg23TpdSB-36">
          <mxGeometry relative="1" as="geometry" />
        </mxCell>
        <mxCell id="apYx_cAYS3KFg23TpdSB-28" value="Yes" style="edgeLabel;html=1;align=center;verticalAlign=middle;resizable=0;points=[];" vertex="1" connectable="0" parent="apYx_cAYS3KFg23TpdSB-27">
          <mxGeometry x="-0.181" relative="1" as="geometry">
            <mxPoint x="-2" y="-1" as="offset" />
          </mxGeometry>
        </mxCell>
        <mxCell id="apYx_cAYS3KFg23TpdSB-25" value="Registered User?" style="rhombus;whiteSpace=wrap;html=1;" vertex="1" parent="1">
          <mxGeometry x="85" y="430" width="80" height="80" as="geometry" />
        </mxCell>
        <mxCell id="apYx_cAYS3KFg23TpdSB-32" value="Error Msg" style="rounded=1;whiteSpace=wrap;html=1;fillColor=#f8cecc;strokeColor=#b85450;" vertex="1" parent="1">
          <mxGeometry x="55" y="261" width="50" height="30" as="geometry" />
        </mxCell>
        <mxCell id="apYx_cAYS3KFg23TpdSB-33" style="edgeStyle=orthogonalEdgeStyle;rounded=0;orthogonalLoop=1;jettySize=auto;html=1;entryX=0.25;entryY=1;entryDx=0;entryDy=0;" edge="1" parent="1" source="apYx_cAYS3KFg23TpdSB-25" target="apYx_cAYS3KFg23TpdSB-32">
          <mxGeometry relative="1" as="geometry">
            <Array as="points">
              <mxPoint x="67" y="470" />
              <mxPoint x="67" y="291" />
            </Array>
          </mxGeometry>
        </mxCell>
        <mxCell id="apYx_cAYS3KFg23TpdSB-35" value="No" style="edgeLabel;html=1;align=center;verticalAlign=middle;resizable=0;points=[];" vertex="1" connectable="0" parent="apYx_cAYS3KFg23TpdSB-33">
          <mxGeometry x="-0.3268" relative="1" as="geometry">
            <mxPoint y="20" as="offset" />
          </mxGeometry>
        </mxCell>
        <mxCell id="apYx_cAYS3KFg23TpdSB-56" value="" style="edgeStyle=orthogonalEdgeStyle;rounded=0;orthogonalLoop=1;jettySize=auto;html=1;entryX=0.5;entryY=0;entryDx=0;entryDy=0;" edge="1" parent="1" source="apYx_cAYS3KFg23TpdSB-36" target="apYx_cAYS3KFg23TpdSB-57">
          <mxGeometry relative="1" as="geometry">
            <mxPoint x="125" y="695" as="targetPoint" />
          </mxGeometry>
        </mxCell>
        <mxCell id="apYx_cAYS3KFg23TpdSB-36" value="Home" style="rounded=0;whiteSpace=wrap;html=1;" vertex="1" parent="1">
          <mxGeometry x="75" y="565" width="100" height="50" as="geometry" />
        </mxCell>
        <mxCell id="apYx_cAYS3KFg23TpdSB-39" value="Customer&lt;div&gt;Dashboard&lt;/div&gt;" style="rounded=0;whiteSpace=wrap;html=1;" vertex="1" parent="1">
          <mxGeometry x="450" y="196" width="90" height="50" as="geometry" />
        </mxCell>
        <mxCell id="apYx_cAYS3KFg23TpdSB-41" value="&lt;p style=&quot;line-height: 70%;&quot;&gt;&lt;font style=&quot;font-size: 8px;&quot;&gt;❌ Session&lt;/font&gt;&lt;/p&gt;" style="shape=process;whiteSpace=wrap;html=1;backgroundOutline=1;fillColor=#d5e8d4;strokeColor=#82b366;rotation=-90;" vertex="1" parent="1">
          <mxGeometry x="98" y="160" width="62" height="30" as="geometry" />
        </mxCell>
        <mxCell id="apYx_cAYS3KFg23TpdSB-42" value="&lt;p style=&quot;line-height: 70%;&quot;&gt;&lt;font style=&quot;font-size: 8px;&quot;&gt;✅ Session&lt;/font&gt;&lt;/p&gt;" style="shape=process;whiteSpace=wrap;html=1;backgroundOutline=1;fillColor=#d5e8d4;strokeColor=#82b366;rotation=-90;" vertex="1" parent="1">
          <mxGeometry x="143" y="575" width="62" height="30" as="geometry" />
        </mxCell>
        <mxCell id="apYx_cAYS3KFg23TpdSB-51" value="" style="edgeStyle=orthogonalEdgeStyle;rounded=0;orthogonalLoop=1;jettySize=auto;html=1;" edge="1" parent="1" source="apYx_cAYS3KFg23TpdSB-43" target="apYx_cAYS3KFg23TpdSB-39">
          <mxGeometry relative="1" as="geometry" />
        </mxCell>
        <mxCell id="apYx_cAYS3KFg23TpdSB-43" value="Customer" style="shape=umlActor;verticalLabelPosition=bottom;verticalAlign=top;html=1;outlineConnect=0;" vertex="1" parent="1">
          <mxGeometry x="480" y="56" width="30" height="60" as="geometry" />
        </mxCell>
        <mxCell id="apYx_cAYS3KFg23TpdSB-44" value="Reseller&lt;div&gt;Dashboard&lt;/div&gt;" style="rounded=0;whiteSpace=wrap;html=1;" vertex="1" parent="1">
          <mxGeometry x="570" y="196" width="90" height="50" as="geometry" />
        </mxCell>
        <mxCell id="apYx_cAYS3KFg23TpdSB-45" value="Admin&lt;div&gt;Dashboard&lt;/div&gt;" style="rounded=0;whiteSpace=wrap;html=1;" vertex="1" parent="1">
          <mxGeometry x="690" y="196" width="90" height="50" as="geometry" />
        </mxCell>
        <mxCell id="apYx_cAYS3KFg23TpdSB-59" value="" style="edgeStyle=orthogonalEdgeStyle;rounded=0;orthogonalLoop=1;jettySize=auto;html=1;" edge="1" parent="1" source="apYx_cAYS3KFg23TpdSB-57" target="apYx_cAYS3KFg23TpdSB-58">
          <mxGeometry relative="1" as="geometry" />
        </mxCell>
        <mxCell id="apYx_cAYS3KFg23TpdSB-57" value="Explore&lt;div&gt;Packs&lt;/div&gt;" style="rounded=0;whiteSpace=wrap;html=1;" vertex="1" parent="1">
          <mxGeometry x="80" y="659" width="90" height="40" as="geometry" />
        </mxCell>
        <mxCell id="apYx_cAYS3KFg23TpdSB-61" value="" style="edgeStyle=orthogonalEdgeStyle;rounded=0;orthogonalLoop=1;jettySize=auto;html=1;" edge="1" parent="1" source="apYx_cAYS3KFg23TpdSB-58" target="apYx_cAYS3KFg23TpdSB-60">
          <mxGeometry relative="1" as="geometry" />
        </mxCell>
        <mxCell id="apYx_cAYS3KFg23TpdSB-58" value="Select Pack" style="rounded=0;whiteSpace=wrap;html=1;" vertex="1" parent="1">
          <mxGeometry x="80" y="739" width="90" height="40" as="geometry" />
        </mxCell>
        <mxCell id="apYx_cAYS3KFg23TpdSB-63" style="edgeStyle=orthogonalEdgeStyle;rounded=1;orthogonalLoop=1;jettySize=auto;html=1;entryX=0.5;entryY=0;entryDx=0;entryDy=0;curved=0;dashed=1;" edge="1" parent="1" source="apYx_cAYS3KFg23TpdSB-60" target="apYx_cAYS3KFg23TpdSB-62">
          <mxGeometry relative="1" as="geometry">
            <Array as="points">
              <mxPoint x="181" y="830" />
            </Array>
          </mxGeometry>
        </mxCell>
        <mxCell id="apYx_cAYS3KFg23TpdSB-67" value="" style="edgeStyle=orthogonalEdgeStyle;rounded=0;orthogonalLoop=1;jettySize=auto;html=1;" edge="1" parent="1" source="apYx_cAYS3KFg23TpdSB-60" target="apYx_cAYS3KFg23TpdSB-66">
          <mxGeometry relative="1" as="geometry" />
        </mxCell>
        <mxCell id="apYx_cAYS3KFg23TpdSB-60" value="Single Pack View" style="rounded=0;whiteSpace=wrap;html=1;" vertex="1" parent="1">
          <mxGeometry x="80" y="820" width="90" height="40" as="geometry" />
        </mxCell>
        <mxCell id="apYx_cAYS3KFg23TpdSB-62" value="Add to Wishlist" style="rounded=1;whiteSpace=wrap;html=1;fillColor=#fff2cc;strokeColor=#d6b656;" vertex="1" parent="1">
          <mxGeometry x="146" y="847" width="70" height="35" as="geometry" />
        </mxCell>
        <mxCell id="apYx_cAYS3KFg23TpdSB-64" value="Add to&lt;div&gt;Cart&lt;/div&gt;" style="rounded=1;whiteSpace=wrap;html=1;fillColor=#fff2cc;strokeColor=#d6b656;" vertex="1" parent="1">
          <mxGeometry x="30" y="847" width="70" height="35" as="geometry" />
        </mxCell>
        <mxCell id="apYx_cAYS3KFg23TpdSB-65" style="edgeStyle=orthogonalEdgeStyle;rounded=1;orthogonalLoop=1;jettySize=auto;html=1;entryX=0.5;entryY=0;entryDx=0;entryDy=0;curved=0;dashed=1;exitX=0;exitY=0.25;exitDx=0;exitDy=0;" edge="1" parent="1" source="apYx_cAYS3KFg23TpdSB-60" target="apYx_cAYS3KFg23TpdSB-64">
          <mxGeometry relative="1" as="geometry">
            <mxPoint x="180" y="840" as="sourcePoint" />
            <mxPoint x="191" y="855" as="targetPoint" />
            <Array as="points">
              <mxPoint x="65" y="830" />
            </Array>
          </mxGeometry>
        </mxCell>
        <mxCell id="apYx_cAYS3KFg23TpdSB-69" value="" style="edgeStyle=orthogonalEdgeStyle;rounded=0;orthogonalLoop=1;jettySize=auto;html=1;" edge="1" parent="1" source="apYx_cAYS3KFg23TpdSB-66" target="apYx_cAYS3KFg23TpdSB-68">
          <mxGeometry relative="1" as="geometry" />
        </mxCell>
        <mxCell id="apYx_cAYS3KFg23TpdSB-66" value="Purchase Pack" style="rounded=0;whiteSpace=wrap;html=1;" vertex="1" parent="1">
          <mxGeometry x="80" y="920" width="90" height="40" as="geometry" />
        </mxCell>
        <mxCell id="apYx_cAYS3KFg23TpdSB-71" value="" style="edgeStyle=orthogonalEdgeStyle;rounded=0;orthogonalLoop=1;jettySize=auto;html=1;" edge="1" parent="1" source="apYx_cAYS3KFg23TpdSB-68" target="apYx_cAYS3KFg23TpdSB-70">
          <mxGeometry relative="1" as="geometry" />
        </mxCell>
        <mxCell id="apYx_cAYS3KFg23TpdSB-68" value="Check Out" style="rounded=0;whiteSpace=wrap;html=1;" vertex="1" parent="1">
          <mxGeometry x="80" y="1000" width="90" height="40" as="geometry" />
        </mxCell>
        <mxCell id="apYx_cAYS3KFg23TpdSB-73" value="" style="edgeStyle=orthogonalEdgeStyle;rounded=0;orthogonalLoop=1;jettySize=auto;html=1;" edge="1" parent="1" source="apYx_cAYS3KFg23TpdSB-70" target="apYx_cAYS3KFg23TpdSB-72">
          <mxGeometry relative="1" as="geometry" />
        </mxCell>
        <mxCell id="apYx_cAYS3KFg23TpdSB-70" value="Proceed to Payment" style="rounded=0;whiteSpace=wrap;html=1;" vertex="1" parent="1">
          <mxGeometry x="80" y="1080" width="90" height="40" as="geometry" />
        </mxCell>
        <mxCell id="apYx_cAYS3KFg23TpdSB-75" value="" style="edgeStyle=orthogonalEdgeStyle;rounded=0;orthogonalLoop=1;jettySize=auto;html=1;" edge="1" parent="1" source="apYx_cAYS3KFg23TpdSB-72" target="apYx_cAYS3KFg23TpdSB-74">
          <mxGeometry relative="1" as="geometry" />
        </mxCell>
        <mxCell id="apYx_cAYS3KFg23TpdSB-72" value="Payment Verification" style="rounded=0;whiteSpace=wrap;html=1;" vertex="1" parent="1">
          <mxGeometry x="241" y="1080" width="90" height="40" as="geometry" />
        </mxCell>
        <mxCell id="apYx_cAYS3KFg23TpdSB-76" style="edgeStyle=orthogonalEdgeStyle;rounded=0;orthogonalLoop=1;jettySize=auto;html=1;entryX=1;entryY=0.3;entryDx=0;entryDy=0;exitX=0.5;exitY=0;exitDx=0;exitDy=0;" edge="1" parent="1" source="apYx_cAYS3KFg23TpdSB-74" target="apYx_cAYS3KFg23TpdSB-13">
          <mxGeometry relative="1" as="geometry">
            <Array as="points">
              <mxPoint x="286" y="360" />
              <mxPoint x="310" y="360" />
              <mxPoint x="310" y="65" />
            </Array>
          </mxGeometry>
        </mxCell>
        <mxCell id="apYx_cAYS3KFg23TpdSB-77" value="Purchase&lt;div&gt;Verification&lt;/div&gt;&lt;div&gt;Email&lt;/div&gt;" style="edgeLabel;html=1;align=center;verticalAlign=middle;resizable=0;points=[];" vertex="1" connectable="0" parent="apYx_cAYS3KFg23TpdSB-76">
          <mxGeometry x="0.7026" y="-2" relative="1" as="geometry">
            <mxPoint y="-20" as="offset" />
          </mxGeometry>
        </mxCell>
        <mxCell id="apYx_cAYS3KFg23TpdSB-79" style="edgeStyle=orthogonalEdgeStyle;rounded=1;orthogonalLoop=1;jettySize=auto;html=1;curved=0;" edge="1" parent="1" source="apYx_cAYS3KFg23TpdSB-74" target="apYx_cAYS3KFg23TpdSB-78">
          <mxGeometry relative="1" as="geometry">
            <Array as="points">
              <mxPoint x="355" y="990" />
            </Array>
          </mxGeometry>
        </mxCell>
        <mxCell id="apYx_cAYS3KFg23TpdSB-74" value="Purchase Confirmation" style="rounded=0;whiteSpace=wrap;html=1;" vertex="1" parent="1">
          <mxGeometry x="241" y="960" width="90" height="40" as="geometry" />
        </mxCell>
        <mxCell id="apYx_cAYS3KFg23TpdSB-78" value="Invoice Generation" style="rounded=1;whiteSpace=wrap;html=1;fillColor=#fff2cc;strokeColor=#d6b656;" vertex="1" parent="1">
          <mxGeometry x="316" y="935" width="70" height="35" as="geometry" />
        </mxCell>
      </root>
    </mxGraphModel>
  </diagram>
</mxfile>
